<?xml version="1.0" encoding="utf-8"?>
<!-- Generator: Adobe Illustrator 21.1.0, SVG Export Plug-In . SVG Version: 6.00 Build 0)  -->
<svg xmlns="http://www.w3.org/2000/svg" width="160" height="49" viewBox="0 0 160 49" fill="none">
	<g clip-path="url(#clip0_688_165)">
		<path
			d="M53.1511 0.624756V6.56933H40.0161V13.3176C44.4223 13.3176 48.8146 13.3037 53.179 13.3176V18.985H40.044V26.3153H53.1511V32.1074H31.5244V0.624756H53.165H53.1511Z"
			fill="white"></path>
		<path
			d="M63.4702 0.638553C64.2092 3.03578 64.9622 5.44687 65.7012 7.8441C66.4542 10.269 67.1932 12.694 67.9601 15.1051C68.7131 17.5023 69.4102 19.8995 70.1772 22.2829L70.3305 22.2552C72.5894 15.0496 74.8483 7.85795 77.1072 0.624697H83.0193C83.0193 0.818692 83.0472 0.984974 83.0472 1.15126C83.0472 2.88336 83.0193 4.61546 83.0611 6.3337C83.089 7.52539 82.8799 8.64779 82.4894 9.77019C80.0632 16.8095 77.6789 23.8626 75.2666 30.9157C75.1272 31.3175 75.0017 31.7332 74.8762 32.1351H65.0319C64.8088 31.47 64.5718 30.7771 64.3347 30.0981C63.4423 27.4515 62.5639 24.791 61.6715 22.1443C60.7791 19.4838 59.8728 16.8233 58.9804 14.1628C58.3529 12.2921 57.7115 10.4353 57.1398 8.55079C56.9446 7.92724 56.9306 7.2344 56.9167 6.56927C56.8888 4.67089 56.9167 2.75865 56.9167 0.860262C56.9167 0.790978 56.9306 0.721694 56.9446 0.61084H63.4284L63.4702 0.638553Z"
			fill="white"></path>
		<path d="M95.5127 0.624756H86.8955V32.1351H95.5127V0.624756Z" fill="white"></path>
		<path
			d="M19.1567 21.3545C18.334 24.1674 16.4516 25.8025 13.5653 26.2044C12.2685 26.3845 10.9299 26.3429 9.61923 26.3984C9.53557 26.3984 9.45191 26.3706 9.31247 26.3429V6.63854C9.31247 6.63854 9.41007 6.56926 9.43796 6.56926C11.2088 6.5554 12.9797 6.4584 14.7087 6.94339C16.8142 7.53924 18.2085 8.86949 18.9615 10.8926C19.5053 12.3614 19.7145 13.8995 19.7563 15.4515C19.8121 17.4469 19.7145 19.4145 19.1567 21.3545ZM27.6484 10.2136C27.6484 9.96418 27.5927 9.68704 27.5229 9.45148C26.6584 6.79097 24.9991 4.7263 22.6566 3.24362C19.7842 1.41452 16.5771 0.707826 13.2446 0.624685C9.20092 0.527688 1.11357 0.596972 1.11357 0.596972H0.597656V32.1905C0.597656 32.1905 8.35035 32.2182 11.8781 32.1905C13.9836 32.1628 16.0752 31.9688 18.1249 31.4284C21.9873 30.4168 25.041 28.3937 26.7839 24.6801C27.1325 23.9318 27.6066 23.1281 27.6205 22.3383C27.7042 18.306 27.6624 14.2598 27.6624 10.2275"
			fill="white"></path>
		<path
			d="M101.662 2.78632L102.387 4.06115H101.815L101.313 3.11889L101.662 2.78632ZM101.355 2.84175C101.62 2.84175 101.773 2.7309 101.773 2.50919C101.773 2.28748 101.634 2.20434 101.355 2.20434H101.104V2.84175H101.355ZM100.588 1.80249H101.397C101.871 1.80249 102.275 1.96877 102.275 2.50919C102.275 3.0496 101.885 3.25746 101.397 3.25746H101.104V4.07501H100.588V1.80249Z"
			fill="white"></path>
		<path
			d="M103.586 2.92491C103.586 4.10273 102.624 5.07271 101.438 5.07271C100.253 5.07271 99.291 4.11659 99.291 2.92491C99.291 1.73322 100.253 0.7771 101.438 0.7771C102.624 0.7771 103.586 1.73322 103.586 2.92491Z"
			stroke="white" stroke-width="0.26" stroke-miterlimit="10"></path>
		<path
			d="M2.27085 43.6223C2.27085 43.7332 2.27085 43.844 2.31268 43.9272C2.42423 44.3983 2.8286 44.7447 3.33057 44.7447C4.06959 44.7447 4.52973 44.1766 4.52973 43.1789C4.52973 42.3198 4.13931 41.627 3.33057 41.627C2.85648 41.627 2.42423 41.9734 2.31268 42.4722C2.28479 42.5692 2.27085 42.6801 2.27085 42.7909V43.6085V43.6223ZM0.5 45.9919C0.527887 45.6316 0.541831 44.9526 0.541831 44.329V37.9133H2.27085V41.0865H2.29874C2.63339 40.6154 3.20508 40.2967 3.98592 40.2967C5.32452 40.2967 6.30058 41.4052 6.28663 43.1096C6.28663 45.1189 5.01776 46.1166 3.73494 46.1166C3.07958 46.1166 2.46606 45.881 2.06169 45.2159H2.03381L1.96409 45.9919H0.5Z"
			fill="white"></path>
		<path
			d="M8.33607 40.4353L9.17269 43.1651C9.2703 43.4977 9.38185 43.8995 9.45156 44.2044H9.49339C9.57706 43.9134 9.66072 43.4838 9.74438 43.1651L10.4276 40.4353H12.2821L10.9854 44.0935C10.1906 46.2967 9.64678 47.1836 9.01931 47.7378C8.41973 48.2644 7.77832 48.4445 7.34607 48.5L6.98353 47.0311C7.19268 47.0034 7.47156 46.8926 7.73649 46.7402C8.00142 46.6016 8.28029 46.3244 8.44762 46.0473C8.50339 45.9642 8.54522 45.881 8.54522 45.7979C8.54522 45.7425 8.54522 45.6455 8.46156 45.5208L6.42578 40.4353H8.35001H8.33607Z"
			fill="white"></path>
		<path
			d="M16.6609 44.6894C16.8143 44.7171 17.0514 44.7171 17.2605 44.7171C18.8361 44.7171 19.854 43.858 19.854 42.0289C19.854 40.4353 18.9338 39.5901 17.4418 39.5901C17.0514 39.5901 16.8004 39.6178 16.6609 39.6594V44.6755V44.6894ZM14.918 38.4261C15.5594 38.3291 16.3821 38.2737 17.2605 38.2737C18.7246 38.2737 19.6588 38.537 20.3978 39.0912C21.1926 39.6871 21.6946 40.6293 21.6946 41.9873C21.6946 43.4561 21.1647 44.4677 20.4257 45.0912C19.617 45.7564 18.3899 46.0751 16.884 46.0751C15.9777 46.0751 15.3502 46.0196 14.918 45.9642V38.44V38.4261Z"
			fill="white"></path>
		<path
			d="M25.5286 43.3592C24.6222 43.3592 23.9111 43.5671 23.9111 44.2322C23.9111 44.6756 24.2039 44.8973 24.5943 44.8973C25.0266 44.8973 25.3752 44.6063 25.5007 44.2599C25.5286 44.1629 25.5425 44.0659 25.5425 43.9689V43.3731L25.5286 43.3592ZM25.7377 45.992L25.6401 45.4378H25.5983C25.2357 45.8812 24.6641 46.1167 24.0087 46.1167C22.8793 46.1167 22.21 45.2992 22.21 44.4124C22.21 42.9712 23.5067 42.2784 25.4728 42.2784V42.1953C25.4728 41.9043 25.3194 41.4747 24.4549 41.4747C23.8832 41.4747 23.2836 41.6687 22.9211 41.8904L22.6004 40.7819C22.9908 40.5602 23.7438 40.2969 24.7617 40.2969C26.6162 40.2969 27.2157 41.3916 27.2157 42.6941V44.6341C27.2157 45.1745 27.2436 45.6872 27.2994 45.992H25.7377Z"
			fill="white"></path>
		<path
			d="M28.3739 42.2089C28.3739 41.5161 28.346 40.9202 28.332 40.4353H29.838L29.9216 41.1974H29.9495C30.1726 40.851 30.7443 40.3105 31.6646 40.3105C32.808 40.3105 33.6585 41.0588 33.6585 42.6939V45.9918H31.9295V42.9018C31.9295 42.1812 31.6785 41.6962 31.0511 41.6962C30.577 41.6962 30.2842 42.0288 30.1726 42.3475C30.1308 42.4445 30.1029 42.6246 30.1029 42.7771V45.9918H28.3739V42.2089Z"
			fill="white"></path>
		<path
			d="M35.0249 45.9918V41.7101H34.2998V40.4352H35.0249V40.2135C35.0249 39.5484 35.234 38.8001 35.736 38.3428C36.1683 37.9271 36.7678 37.7886 37.2698 37.7886C37.6602 37.7886 37.9531 37.8301 38.1901 37.8994L38.1204 39.2297C37.967 39.1881 37.7857 39.1465 37.5626 39.1465C36.9909 39.1465 36.7539 39.59 36.7539 40.1304V40.4075H37.8694V41.6823H36.7678V45.9641H35.0249V45.9918Z"
			fill="white"></path>
		<path
			d="M39.8495 43.2068C39.8495 44.1629 40.2399 44.8835 40.9929 44.8835C41.6622 44.8835 42.0945 44.2184 42.0945 43.2068C42.0945 42.3754 41.7737 41.5301 40.9929 41.5301C40.1563 41.5301 39.8495 42.3893 39.8495 43.2068ZM43.8792 43.1514C43.8792 45.1883 42.4291 46.1167 40.9371 46.1167C39.3057 46.1167 38.0508 45.0498 38.0508 43.2484C38.0508 41.447 39.236 40.2969 41.0208 40.2969C42.8056 40.2969 43.8653 41.4747 43.8653 43.1375"
			fill="white"></path>
		<path
			d="M44.7293 44.4816C45.05 44.6756 45.7054 44.8973 46.2213 44.8973C46.7372 44.8973 46.9603 44.7172 46.9603 44.4262C46.9603 44.1352 46.793 44.0105 46.1377 43.7888C44.9803 43.4008 44.5481 42.7772 44.5481 42.1121C44.5481 41.0729 45.4405 40.2969 46.807 40.2969C47.4623 40.2969 48.034 40.4493 48.3826 40.6156L48.0758 41.8073C47.8248 41.6687 47.3508 41.4886 46.8767 41.4886C46.4584 41.4886 46.2213 41.6548 46.2213 41.9458C46.2213 42.2091 46.4305 42.3477 47.1277 42.5833C48.1874 42.9435 48.6336 43.4839 48.6475 44.3015C48.6475 45.3408 47.8248 46.1029 46.2353 46.1029C45.5102 46.1029 44.8548 45.9366 44.4365 45.7149L44.7433 44.4816H44.7293Z"
			fill="white"></path>
		<path
			d="M49.4559 44.4816C49.7766 44.6756 50.432 44.8973 50.9479 44.8973C51.4638 44.8973 51.6869 44.7172 51.6869 44.4262C51.6869 44.1352 51.5196 44.0105 50.8642 43.7888C49.7069 43.4008 49.2746 42.7772 49.2746 42.1121C49.2746 41.0729 50.167 40.2969 51.5335 40.2969C52.1889 40.2969 52.7606 40.4493 53.1091 40.6156L52.8024 41.8073C52.5514 41.6687 52.0773 41.4886 51.6032 41.4886C51.1849 41.4886 50.9479 41.6548 50.9479 41.9458C50.9479 42.2091 51.157 42.3477 51.8542 42.5833C52.9139 42.9435 53.3601 43.4839 53.3741 44.3015C53.3741 45.3408 52.5514 46.1029 50.9618 46.1029C50.2367 46.1029 49.5814 45.9366 49.1631 45.7149L49.4698 44.4816H49.4559Z"
			fill="white"></path>
		<path
			d="M157.241 0.541452L157.283 27.105C157.283 28.8094 155.875 30.195 154.16 30.195C152.445 30.195 151.037 28.8094 151.037 27.105L151.078 5.76547C151.078 2.85554 148.68 0.499882 145.738 0.499882C142.796 0.499882 140.398 2.8694 140.398 5.76547L140.439 27.0911C140.439 28.7955 139.031 30.1812 137.302 30.1812C135.573 30.1812 134.179 28.7955 134.179 27.0911L134.22 5.75161C134.22 2.84168 131.822 0.486025 128.88 0.486025C125.938 0.486025 123.54 2.85554 123.54 5.75161L123.581 27.0773C123.581 28.7816 122.173 30.1673 120.458 30.1673C118.743 30.1673 117.321 28.7816 117.321 27.0773L117.363 5.73776C117.363 2.82783 114.964 0.472168 112.022 0.472168C109.08 0.472168 106.682 2.84168 106.682 5.73776V31.8856H108.899V5.76547C108.899 4.06108 110.307 2.6754 112.022 2.6754C113.737 2.6754 115.145 4.06108 115.145 5.76547L115.104 27.105C115.104 30.0149 117.502 32.3706 120.444 32.3706C123.386 32.3706 125.785 30.001 125.785 27.105L125.743 5.77933C125.743 4.07494 127.151 2.68926 128.866 2.68926C130.581 2.68926 131.989 4.07494 131.989 5.77933L131.948 27.1188C131.948 30.0288 134.346 32.3844 137.288 32.3844C140.23 32.3844 142.628 30.0149 142.628 27.1188L142.587 5.79318C142.587 4.0888 143.995 2.70311 145.71 2.70311C147.425 2.70311 148.833 4.0888 148.833 5.79318L148.792 27.1327C148.792 30.0426 151.19 32.3983 154.132 32.3983C157.074 32.3983 159.472 30.0288 159.472 27.1327L159.431 0.569166"
			fill="white"></path>
	</g>
	<defs>
		<clipPath id="clip0_688_165">
			<rect width="159" height="48" fill="white" transform="translate(0.5 0.5)"></rect>
		</clipPath>
	</defs>
</svg>