<svg xmlns="http://www.w3.org/2000/svg" xml:space="preserve" fill-rule="evenodd" stroke-linecap="round" stroke-linejoin="round" stroke-miterlimit="1.5" clip-rule="evenodd" viewBox="0 0 960 960">
  <path fill="#fff" d="M178 37s-48.8 7.2-69.2 11C89.5 51.6 67 62.5 66 88c-1 28.5 1.6 763.7 2 786 .4 22.3 12.4 39.2 42 45.4 21.5 4.5 73 9.6 73 9.6"/>
  <path fill="#fff" stroke="#000" stroke-width="20" d="M117 917.9a44.3 44.3 0 0 1-48.5-45.5L65.1 94.7a45.6 45.6 0 0 1 48.3-47.1"/>
  <g stroke="#000">
    <path fill="#fff" stroke-width="20" d="m195 51.6 680 44.1c21.9 1.4 39.8 21.7 39.8 45.5v663.1c0 23.7-17.8 44.4-39.7 46.4L198.7 914a44 44 0 0 1-48-45.1l-3.5-770.5a45.2 45.2 0 0 1 47.9-46.7"/>
    <path fill="none" stroke-width="10" d="M546.4 124.5c176.3 9.7 321.7 162 321.8 349.4 0 186.8-144.4 342.8-320.3 357.5-194.1 16.3-350.3-144.3-351.2-348-.8-204.2 155-369.6 349.7-359Z"/>
    <path fill="none" stroke-width="10" d="M543 206.8c137 5.3 249.6 122.9 249.7 268.1.1 145-111.8 265.5-248.5 274.8-147.5 10-266.4-112.6-267-267.4-.6-155.2 118-281.3 265.8-275.5Z"/>
    <path fill="#fff" stroke-width="20" d="M596.1 204.3C732.4 209.7 844.3 327 844.3 472c.1 144.6-111.2 265-247.2 274.1-146.7 10-265-112.4-265.6-267-.5-155 117.6-280.8 264.6-275Z"/>
  </g>
  <path fill="none" stroke="#000" stroke-width="40" d="m185.2 36.6 703.3 45.7c22.7 1.4 41.2 22.4 41.2 47v686.2c0 24.4-18.4 45.8-41 48L189 928.7M178 37s-48.8 7.2-69.2 11C89.5 51.6 67 62.5 66 88c-1 28.5 1.6 763.7 2 786 .4 22.3 12.4 39.2 42 45.4 21.5 4.5 73 9.6 73 9.6"/>
</svg>