<?xml version="1.0" encoding="UTF-8" standalone="no"?>
<!DOCTYPE svg PUBLIC "-//W3C//DTD SVG 1.1//EN" "http://www.w3.org/Graphics/SVG/1.1/DTD/svg11.dtd">
<svg width="100%" height="100%" viewBox="0 0 960 960" version="1.1" xmlns="http://www.w3.org/2000/svg" xmlns:xlink="http://www.w3.org/1999/xlink" xml:space="preserve" xmlns:serif="http://www.serif.com/" style="fill-rule:evenodd;clip-rule:evenodd;stroke-linejoin:round;stroke-miterlimit:2;">
    <g id="dk.denfrievilje.deviconnect-drivers-reg" serif:id="dk.denfrievilje.deviconnect/drivers/reg">
        <g>
            <rect x="400" width="20" height="120" rx="10" y="800" style="fill:rgb(0,0,255);" fill-opacity="0.0">
            <animate
                    attributeName="fill-opacity"
                    values=  "0;    0;   1;    1;   0; 0"
                    keyTimes="0; 0.05; 0.1; 0.65; 0.7; 1"
                    dur="6s"
                    repeatCount="indefinite" />                
            <animate
                    attributeName="y"
                    values=  "800;  800; 770; 770;  800; 800"
                    keyTimes="  0; 0.05; 0.1; 0.65; 0.7;   1"
                    dur="6s"
                    repeatCount="indefinite" />                
            <animate
                    attributeName="height"
                    values=  "120;  120;  100;  100;  120; 120"
                    keyTimes="  0;  0.1; 0.15;  0.6; 0.65;   1"
                    dur="6s"
                    repeatCount="indefinite" />                
            </rect>
        </g>
        <path id="Path" d="M113.888,7.842L115.392,7.86L883.967,16.967L884.827,16.978C923.186,17.71 955.371,46.783 956.017,85.585L956.027,86.776L956.027,864.372C956.027,903.356 923.857,935.058 884.877,936.408L884.587,936.418L884.297,936.423L117.267,951.849L113.327,951.928L109.447,951.237C78.926,945.799 53.336,934.055 34.685,916.878C15.163,898.898 4.018,875.492 4.027,850.975C4.248,516.238 4.413,265.359 4.523,98.338C4.535,80.419 10.384,64.062 20.905,50.399C29.263,39.543 40.04,30.973 52.505,24.254C70.119,14.758 91.57,9.04 107.628,8.238L112.387,7.937L113.888,7.842ZM114.918,47.857L109.881,48.176C94.612,48.845 44.548,60.877 44.523,98.365C44.413,265.386 44.248,516.264 44.027,851.001C44.018,875.841 67.241,903.087 116.463,911.857L883.493,896.431C901.356,895.813 916.027,881.356 916.027,864.372L916.027,86.776C916.027,69.788 901.367,57.035 883.493,56.964L114.918,47.857Z" style="fill-rule:nonzero;"/>
        <path id="Combined-Shape" d="M135.161,27.859L883.736,36.966L884.432,36.974C912.46,37.502 935.556,58.357 936.027,85.93L936.027,864.372C936.027,892.356 912.606,915.435 884.185,916.42L883.912,916.427L146.882,931.857L146.463,931.857C115.835,931.857 94.458,920.91 83.214,900.335C78.825,892.305 76.311,883.437 75.066,873.467C74.257,866.992 74.043,861.539 74.026,852.42L74.026,850.988C74.248,516.251 74.413,265.372 74.523,98.351C74.538,76.375 80.398,58.682 91.551,46.161C101.536,34.951 114.99,28.874 128.762,28.207L133.653,27.897C133.987,27.876 134.323,27.859 134.658,27.859L135.161,27.859ZM134.918,47.857L129.881,48.176C114.612,48.845 94.548,60.877 94.523,98.365C94.413,265.386 94.248,516.264 94.026,851.001L94.026,852.504C94.058,877.267 95.562,911.857 146.463,911.857L883.493,896.431C901.356,895.813 916.027,881.356 916.027,864.372L916.027,86.776C916.027,69.788 901.367,57.035 883.493,56.964L134.918,47.857ZM285.699,179.2L308.789,179.481L308.964,179.481L771.614,185.114L787.514,185.307C809.414,185.574 827.027,203.403 827.027,225.304L827.027,729.271C827.027,751.037 809.625,768.807 787.864,769.263L442.078,776.499L309.001,779.284L308.98,779.284L290.213,779.677L285.912,779.78L285.175,779.78C284.484,779.78 283.801,779.751 283.128,779.686L282.872,779.658L257.504,778.099C237.602,776.875 222.067,760.487 221.837,740.616L221.837,740.012L223.981,224.268C224.067,203.596 239.183,186.06 259.616,182.928L282.425,179.431C283.509,179.265 284.604,179.188 285.699,179.2ZM308.549,199.481L308.456,199.481C295.753,199.473 285.449,209.764 285.441,222.466L285.102,736.278L285.102,736.775C285.369,749.319 295.627,759.307 308.117,759.298L743.86,750.179L784.508,749.328C797.021,749.067 807.027,738.848 807.027,726.333L807.029,575.4C806.932,575.622 806.835,575.844 806.737,576.066C806.473,576.657 806.21,577.25 805.944,577.84C805.794,578.178 805.641,578.514 805.488,578.85C805.179,579.526 804.867,580.201 804.553,580.874C804.439,581.117 804.325,581.36 804.211,581.602C785.74,620.796 756.812,654.086 720.292,676.98L719.217,677.645L718.609,678.225C673.167,721.138 614.599,745.505 552.405,745.993L550.5,746C410.914,746 298,626.334 298,479C298,331.666 410.914,212 550.5,212C613.406,212 672.711,236.426 718.622,279.782L719.233,280.362L720.274,281.008C753.876,302.068 781.071,331.95 799.599,367.159C799.624,367.211 799.65,367.261 799.677,367.311C800.179,368.263 800.674,369.221 801.162,370.183C801.29,370.432 801.417,370.683 801.543,370.934C801.842,371.529 802.138,372.125 802.433,372.723C802.647,373.151 802.858,373.582 803.068,374.013C803.174,374.241 803.283,374.466 803.392,374.692C804.653,377.299 805.865,379.937 807.03,382.603L807.027,228.268C807.027,215.675 796.9,205.423 784.307,205.27L769.828,205.094L308.549,199.481ZM270.94,201.425L262.647,202.697C251.944,204.337 244.026,213.523 243.981,224.351L241.837,740.096C241.798,749.636 249.209,757.551 258.732,758.136L271.531,758.924C267.608,752.599 265.278,745.173 265.111,737.193C265.102,736.884 265.102,736.574 265.102,736.265L265.441,222.453C265.446,214.813 267.443,207.64 270.94,201.425ZM550.5,232C422.228,232 318,342.46 318,479C318,615.54 422.228,726 550.5,726C582.128,726 612.769,719.267 640.961,706.611C630.69,708.186 620.186,709 609.5,709L609.177,708.995L566.001,709L565.5,709C447.771,709 351.88,610.101 348.114,486.468L348.028,482.715L348,479C348,352.101 445.243,249 565.5,249L610.025,249C620.533,249.026 630.865,249.84 640.969,251.387C612.774,238.734 582.13,232 550.5,232ZM609.735,269.183C500.925,269.183 412.471,362.994 412.471,479C412.471,595.006 500.925,688.817 609.735,688.817C693.495,688.817 765.193,633.229 793.766,554.719C793.794,554.645 793.821,554.572 793.848,554.498L793.766,554.719C794.09,553.829 794.408,552.937 794.72,552.042L793.848,554.498C794.233,553.433 794.611,552.364 794.981,551.291L794.72,552.042C795.102,550.949 795.475,549.852 795.84,548.751L794.981,551.291C795.371,550.158 795.752,549.022 796.124,547.882L795.84,548.751C796.118,547.91 796.392,547.067 796.661,546.221L796.124,547.882C796.858,545.633 797.556,543.368 798.219,541.088C798.309,540.789 798.396,540.488 798.483,540.186L798.219,541.088C798.836,538.965 799.421,536.829 799.976,534.681C800.038,534.458 800.096,534.233 800.153,534.008L799.976,534.681C800.528,532.54 801.049,530.388 801.538,528.224C801.59,528.017 801.637,527.808 801.683,527.599L801.538,528.224C802.015,526.113 802.462,523.99 802.879,521.857C802.943,521.548 803.003,521.239 803.062,520.929L802.879,521.857C803.126,520.589 803.363,519.317 803.589,518.042C803.654,517.692 803.716,517.341 803.776,516.99L803.589,518.042C803.744,517.164 803.895,516.284 804.04,515.403L803.776,516.99C803.935,516.064 804.089,515.136 804.236,514.206L804.04,515.403C804.187,514.506 804.329,513.609 804.466,512.709L804.569,512.044L804.838,510.167L804.99,509.074L805.26,506.985C805.294,506.715 805.328,506.445 805.361,506.174L805.694,503.278L805.765,502.619C805.835,501.95 805.903,501.279 805.967,500.608C806.003,500.239 806.038,499.87 806.071,499.5L805.967,500.608C806.193,498.261 806.382,495.904 806.534,493.535C806.552,493.27 806.568,493.005 806.584,492.74L806.534,493.535C806.683,491.227 806.796,488.908 806.874,486.58C806.881,486.356 806.888,486.132 806.895,485.907L806.874,486.58C806.896,485.906 806.916,485.23 806.932,484.554L806.973,482.613C806.974,482.499 806.976,482.385 806.978,482.271L806.971,482.612C806.99,481.411 807,480.206 807,479C807,476.827 806.969,474.662 806.907,472.505C806.899,472.233 806.891,471.961 806.882,471.689L806.829,470.192C806.81,469.703 806.79,469.215 806.768,468.727L806.735,468.033L806.61,465.692L806.552,464.734L806.497,463.889C806.395,462.364 806.277,460.843 806.145,459.326C805.975,457.424 805.784,455.527 805.569,453.637C805.553,453.451 805.532,453.268 805.511,453.084L805.569,453.637C803.427,434.78 798.92,416.568 792.31,399.404C792.128,398.926 791.943,398.451 791.756,397.976L792.31,399.404C791.997,398.591 791.679,397.781 791.357,396.974L791.756,397.976C791.293,396.8 790.82,395.629 790.337,394.464L791.357,396.974C790.957,395.972 790.551,394.974 790.137,393.98L790.337,394.464C759.746,320.642 690.324,269.183 609.735,269.183ZM499.062,281.184L497.284,281.869C421.879,311.385 368,388.42 368,478.924L368.027,482.485C369.401,572.361 423.795,648.256 499.106,676.843C435.235,636.794 392.471,563.131 392.471,479C392.471,394.887 435.216,321.238 499.062,281.184Z" style="fill-rule:nonzero;"/>
        <g transform="matrix(2.86905,0,0,2.86905,491.726,168.341)" fill-opacity="0">
            <animate
                    attributeName="fill-opacity"
                    values=  "0;   0;    1;   0;    1;   0;    1;   0;    1;   0;    1; 0"
                    keyTimes="0; 0.5; 0.55; 0.6; 0.65; 0.7; 0.75; 0.8; 0.85; 0.9; 0.95; 1"
                    dur="6s"
                    repeatCount="indefinite" />
            <g transform="matrix(0.1,0,0,0.1,0,68.4383)">
                <path d="M470.898,987.984L403.41,987.984L420.238,856.023C410.02,850.015 403.73,839.124 403.73,827.202C403.73,808.765 418.73,793.773 437.16,793.773C455.59,793.773 470.59,808.765 470.59,827.202C470.59,839.136 464.301,850.023 454.078,856.023" style="fill:rgb(255,0,0);"/>
            </g>
            <g transform="matrix(0.1,0,0,0.1,0,49.6384)">
                <path d="M568.559,1108.99C566.066,1108.99 563.559,1108.33 561.266,1106.95C554.637,1102.91 552.535,1094.27 556.566,1087.64C569.797,1065.88 576.797,1040.83 576.797,1015.2C576.797,962.006 545.836,912.646 497.926,889.446C490.945,886.056 488.027,877.656 491.406,870.676C494.785,863.696 503.188,860.766 510.176,864.156C567.719,892.016 604.898,951.306 604.898,1015.2C604.898,1045.98 596.488,1076.07 580.578,1102.24C577.926,1106.59 573.297,1108.99 568.559,1108.99ZM305.766,1108.99C301.016,1108.99 296.387,1106.59 293.746,1102.24C277.836,1076.07 269.426,1045.98 269.426,1015.2C269.426,951.306 306.605,892.016 364.148,864.156C371.129,860.776 379.527,863.686 382.918,870.676C386.297,877.656 383.379,886.056 376.387,889.446C328.477,912.646 297.527,962.006 297.527,1015.2C297.527,1040.83 304.516,1065.88 317.758,1087.64C321.785,1094.27 319.676,1102.91 313.047,1106.95C310.766,1108.33 308.246,1108.99 305.766,1108.99ZM365.547,1066.83C360.496,1066.83 355.617,1064.09 353.098,1059.31C345.969,1045.74 342.195,1030.49 342.195,1015.2C342.195,978.869 362.496,946.256 395.176,930.106C402.129,926.666 410.559,929.516 413.996,936.476C417.438,943.426 414.586,951.856 407.629,955.296C384.605,966.676 370.297,989.639 370.297,1015.2C370.297,1026.11 372.879,1036.55 377.969,1046.24C381.578,1053.1 378.938,1061.6 372.078,1065.21C369.988,1066.31 367.746,1066.83 365.547,1066.83ZM508.777,1066.83C506.578,1066.83 504.336,1066.31 502.246,1065.21C495.379,1061.6 492.738,1053.1 496.348,1046.24C501.438,1036.55 504.016,1026.11 504.016,1015.2C504.016,989.639 489.719,966.676 466.695,955.296C459.738,951.856 456.879,943.426 460.316,936.476C463.766,929.506 472.219,926.676 479.137,930.106C511.816,946.256 532.117,978.869 532.117,1015.2C532.117,1030.5 528.348,1045.75 521.219,1059.31C518.707,1064.09 513.828,1066.83 508.777,1066.83Z" style="fill:rgb(255,0,0);"/>    
            </g>
        </g>
    </g>
</svg>
